<mxfile host="app.diagrams.net" agent="Mozilla/5.0 (X11; Linux x86_64) AppleWebKit/537.36 (KHTML, like Gecko) Chrome/127.0.0.0 Safari/537.36" version="24.7.14">
  <diagram name="Page-1" id="BF-N7P3xVQ1ct8htm8zQ">
    <mxGraphModel dx="454" dy="674" grid="1" gridSize="10" guides="1" tooltips="1" connect="1" arrows="1" fold="1" page="1" pageScale="1" pageWidth="827" pageHeight="1169" math="0" shadow="0">
      <root>
        <mxCell id="0" />
        <mxCell id="1" parent="0" />
        <mxCell id="tepPoc68Ynostsxfefrb-22" style="edgeStyle=orthogonalEdgeStyle;rounded=0;orthogonalLoop=1;jettySize=auto;html=1;exitX=1;exitY=0.5;exitDx=0;exitDy=0;entryX=0;entryY=0.5;entryDx=0;entryDy=0;" parent="1" source="tepPoc68Ynostsxfefrb-6" target="tepPoc68Ynostsxfefrb-7" edge="1">
          <mxGeometry relative="1" as="geometry" />
        </mxCell>
        <mxCell id="tepPoc68Ynostsxfefrb-6" value="Search for aRCC RCTs" style="rounded=1;whiteSpace=wrap;html=1;fillColor=#b1ddf0;strokeColor=#10739e;" parent="1" vertex="1">
          <mxGeometry x="180" y="240" width="80" height="40" as="geometry" />
        </mxCell>
        <mxCell id="tepPoc68Ynostsxfefrb-23" style="edgeStyle=orthogonalEdgeStyle;rounded=0;orthogonalLoop=1;jettySize=auto;html=1;exitX=1;exitY=0.5;exitDx=0;exitDy=0;entryX=0;entryY=0.5;entryDx=0;entryDy=0;" parent="1" source="tepPoc68Ynostsxfefrb-7" target="tepPoc68Ynostsxfefrb-9" edge="1">
          <mxGeometry relative="1" as="geometry" />
        </mxCell>
        <mxCell id="tepPoc68Ynostsxfefrb-24" style="edgeStyle=orthogonalEdgeStyle;rounded=0;orthogonalLoop=1;jettySize=auto;html=1;exitX=1;exitY=0.5;exitDx=0;exitDy=0;" parent="1" source="tepPoc68Ynostsxfefrb-7" target="tepPoc68Ynostsxfefrb-10" edge="1">
          <mxGeometry relative="1" as="geometry" />
        </mxCell>
        <mxCell id="tepPoc68Ynostsxfefrb-7" value="Grouped survival data" style="rounded=1;whiteSpace=wrap;html=1;fillColor=none;strokeColor=none;" parent="1" vertex="1">
          <mxGeometry x="290" y="240" width="90" height="40" as="geometry" />
        </mxCell>
        <mxCell id="tepPoc68Ynostsxfefrb-25" style="edgeStyle=orthogonalEdgeStyle;rounded=0;orthogonalLoop=1;jettySize=auto;html=1;exitX=1;exitY=0.5;exitDx=0;exitDy=0;entryX=0;entryY=0.5;entryDx=0;entryDy=0;" parent="1" source="tepPoc68Ynostsxfefrb-9" target="tepPoc68Ynostsxfefrb-11" edge="1">
          <mxGeometry relative="1" as="geometry" />
        </mxCell>
        <mxCell id="tepPoc68Ynostsxfefrb-9" value="Proportional hazards NMA" style="rounded=1;whiteSpace=wrap;html=1;fillColor=#b1ddf0;strokeColor=#10739e;" parent="1" vertex="1">
          <mxGeometry x="420" y="210" width="110" height="40" as="geometry" />
        </mxCell>
        <mxCell id="tepPoc68Ynostsxfefrb-26" style="edgeStyle=orthogonalEdgeStyle;rounded=0;orthogonalLoop=1;jettySize=auto;html=1;exitX=1;exitY=0.5;exitDx=0;exitDy=0;entryX=0;entryY=0.5;entryDx=0;entryDy=0;" parent="1" source="tepPoc68Ynostsxfefrb-10" target="tepPoc68Ynostsxfefrb-11" edge="1">
          <mxGeometry relative="1" as="geometry" />
        </mxCell>
        <mxCell id="tepPoc68Ynostsxfefrb-10" value="Fractional polynomial NMA" style="rounded=1;whiteSpace=wrap;html=1;fillColor=#b1ddf0;strokeColor=#10739e;" parent="1" vertex="1">
          <mxGeometry x="420" y="262.5" width="110" height="37.5" as="geometry" />
        </mxCell>
        <mxCell id="tepPoc68Ynostsxfefrb-45" style="edgeStyle=orthogonalEdgeStyle;rounded=0;orthogonalLoop=1;jettySize=auto;html=1;exitX=1;exitY=0.5;exitDx=0;exitDy=0;entryX=0;entryY=0.5;entryDx=0;entryDy=0;" parent="1" source="tepPoc68Ynostsxfefrb-11" target="tepPoc68Ynostsxfefrb-38" edge="1">
          <mxGeometry relative="1" as="geometry" />
        </mxCell>
        <mxCell id="tepPoc68Ynostsxfefrb-47" style="edgeStyle=orthogonalEdgeStyle;rounded=0;orthogonalLoop=1;jettySize=auto;html=1;exitX=1;exitY=0.5;exitDx=0;exitDy=0;entryX=0;entryY=0.5;entryDx=0;entryDy=0;" parent="1" source="tepPoc68Ynostsxfefrb-11" target="tepPoc68Ynostsxfefrb-46" edge="1">
          <mxGeometry relative="1" as="geometry" />
        </mxCell>
        <mxCell id="tepPoc68Ynostsxfefrb-11" value="HR" style="rounded=1;whiteSpace=wrap;html=1;fillColor=none;strokeColor=none;" parent="1" vertex="1">
          <mxGeometry x="580" y="247.5" width="40" height="25" as="geometry" />
        </mxCell>
        <mxCell id="tepPoc68Ynostsxfefrb-27" style="edgeStyle=orthogonalEdgeStyle;rounded=0;orthogonalLoop=1;jettySize=auto;html=1;exitX=1;exitY=0.5;exitDx=0;exitDy=0;entryX=0;entryY=0.5;entryDx=0;entryDy=0;" parent="1" source="tepPoc68Ynostsxfefrb-13" target="tepPoc68Ynostsxfefrb-14" edge="1">
          <mxGeometry relative="1" as="geometry" />
        </mxCell>
        <mxCell id="AXeaygmQXdkBwOUCzoVz-3" style="edgeStyle=orthogonalEdgeStyle;rounded=0;orthogonalLoop=1;jettySize=auto;html=1;exitX=1;exitY=0.5;exitDx=0;exitDy=0;entryX=0;entryY=0.5;entryDx=0;entryDy=0;" parent="1" source="tepPoc68Ynostsxfefrb-13" target="AXeaygmQXdkBwOUCzoVz-2" edge="1">
          <mxGeometry relative="1" as="geometry" />
        </mxCell>
        <mxCell id="tepPoc68Ynostsxfefrb-13" value="Search for RWE" style="rounded=1;whiteSpace=wrap;html=1;fillColor=#b1ddf0;strokeColor=#10739e;" parent="1" vertex="1">
          <mxGeometry x="180" y="350" width="80" height="40" as="geometry" />
        </mxCell>
        <mxCell id="tepPoc68Ynostsxfefrb-28" style="edgeStyle=orthogonalEdgeStyle;rounded=0;orthogonalLoop=1;jettySize=auto;html=1;exitX=1;exitY=0.5;exitDx=0;exitDy=0;entryX=0;entryY=0.5;entryDx=0;entryDy=0;" parent="1" source="tepPoc68Ynostsxfefrb-14" target="tepPoc68Ynostsxfefrb-15" edge="1">
          <mxGeometry relative="1" as="geometry" />
        </mxCell>
        <mxCell id="tepPoc68Ynostsxfefrb-14" value="Patient-level survival data" style="rounded=1;whiteSpace=wrap;html=1;fillColor=none;strokeColor=none;" parent="1" vertex="1">
          <mxGeometry x="292.5" y="320" width="85" height="40" as="geometry" />
        </mxCell>
        <mxCell id="tepPoc68Ynostsxfefrb-29" style="edgeStyle=orthogonalEdgeStyle;rounded=0;orthogonalLoop=1;jettySize=auto;html=1;exitX=1;exitY=0.5;exitDx=0;exitDy=0;entryX=0;entryY=0.5;entryDx=0;entryDy=0;" parent="1" source="tepPoc68Ynostsxfefrb-15" target="tepPoc68Ynostsxfefrb-16" edge="1">
          <mxGeometry relative="1" as="geometry" />
        </mxCell>
        <mxCell id="tepPoc68Ynostsxfefrb-15" value="Partitioned survival model" style="rounded=1;whiteSpace=wrap;html=1;fillColor=#b1ddf0;strokeColor=#10739e;" parent="1" vertex="1">
          <mxGeometry x="425" y="320" width="100" height="40" as="geometry" />
        </mxCell>
        <mxCell id="tepPoc68Ynostsxfefrb-37" style="edgeStyle=orthogonalEdgeStyle;rounded=0;orthogonalLoop=1;jettySize=auto;html=1;exitX=1;exitY=0.5;exitDx=0;exitDy=0;entryX=0;entryY=0.5;entryDx=0;entryDy=0;" parent="1" source="tepPoc68Ynostsxfefrb-16" target="tepPoc68Ynostsxfefrb-36" edge="1">
          <mxGeometry relative="1" as="geometry" />
        </mxCell>
        <mxCell id="tepPoc68Ynostsxfefrb-16" value="Extrapolated survival curves" style="rounded=1;whiteSpace=wrap;html=1;fillColor=none;strokeColor=none;" parent="1" vertex="1">
          <mxGeometry x="550" y="320" width="100" height="40" as="geometry" />
        </mxCell>
        <mxCell id="tepPoc68Ynostsxfefrb-42" style="edgeStyle=orthogonalEdgeStyle;rounded=0;orthogonalLoop=1;jettySize=auto;html=1;exitX=1;exitY=0.5;exitDx=0;exitDy=0;entryX=0;entryY=0.5;entryDx=0;entryDy=0;" parent="1" source="tepPoc68Ynostsxfefrb-36" target="tepPoc68Ynostsxfefrb-39" edge="1">
          <mxGeometry relative="1" as="geometry" />
        </mxCell>
        <mxCell id="tepPoc68Ynostsxfefrb-36" value="Reference curves:&lt;div&gt;1L sunitinib&lt;/div&gt;&lt;div&gt;2L+ cabozantinib&lt;/div&gt;" style="rounded=1;whiteSpace=wrap;html=1;fillColor=none;strokeColor=none;" parent="1" vertex="1">
          <mxGeometry x="670" y="320" width="130" height="40" as="geometry" />
        </mxCell>
        <mxCell id="tepPoc68Ynostsxfefrb-44" style="edgeStyle=orthogonalEdgeStyle;rounded=0;orthogonalLoop=1;jettySize=auto;html=1;exitX=1;exitY=0.5;exitDx=0;exitDy=0;entryX=0;entryY=0.5;entryDx=0;entryDy=0;" parent="1" source="tepPoc68Ynostsxfefrb-38" target="tepPoc68Ynostsxfefrb-39" edge="1">
          <mxGeometry relative="1" as="geometry" />
        </mxCell>
        <mxCell id="tepPoc68Ynostsxfefrb-38" value="Treatment effectiveness HR" style="rounded=1;whiteSpace=wrap;html=1;fillColor=none;strokeColor=none;" parent="1" vertex="1">
          <mxGeometry x="680" y="262.5" width="110" height="37.5" as="geometry" />
        </mxCell>
        <mxCell id="tepPoc68Ynostsxfefrb-41" style="edgeStyle=orthogonalEdgeStyle;rounded=0;orthogonalLoop=1;jettySize=auto;html=1;exitX=1;exitY=0.5;exitDx=0;exitDy=0;entryX=0;entryY=0.5;entryDx=0;entryDy=0;" parent="1" source="tepPoc68Ynostsxfefrb-39" target="tepPoc68Ynostsxfefrb-40" edge="1">
          <mxGeometry relative="1" as="geometry" />
        </mxCell>
        <mxCell id="tepPoc68Ynostsxfefrb-39" value="Apply HR to reference curves" style="rounded=1;whiteSpace=wrap;html=1;fillColor=#b1ddf0;strokeColor=#10739e;" parent="1" vertex="1">
          <mxGeometry x="840" y="292.5" width="80" height="47.5" as="geometry" />
        </mxCell>
        <mxCell id="tepPoc68Ynostsxfefrb-66" style="edgeStyle=orthogonalEdgeStyle;rounded=0;orthogonalLoop=1;jettySize=auto;html=1;exitX=1;exitY=0.5;exitDx=0;exitDy=0;endArrow=none;endFill=0;" parent="1" source="tepPoc68Ynostsxfefrb-40" edge="1">
          <mxGeometry relative="1" as="geometry">
            <mxPoint x="1080" y="316" as="targetPoint" />
          </mxGeometry>
        </mxCell>
        <mxCell id="tepPoc68Ynostsxfefrb-40" value="Apply modifications (effect waning, general population mortality, curve overlap)" style="rounded=1;whiteSpace=wrap;html=1;fillColor=#b1ddf0;strokeColor=#10739e;" parent="1" vertex="1">
          <mxGeometry x="940" y="275" width="110" height="82.5" as="geometry" />
        </mxCell>
        <mxCell id="tepPoc68Ynostsxfefrb-49" style="edgeStyle=orthogonalEdgeStyle;rounded=0;orthogonalLoop=1;jettySize=auto;html=1;exitX=1;exitY=0.5;exitDx=0;exitDy=0;entryX=0;entryY=0.5;entryDx=0;entryDy=0;" parent="1" source="tepPoc68Ynostsxfefrb-46" target="tepPoc68Ynostsxfefrb-48" edge="1">
          <mxGeometry relative="1" as="geometry" />
        </mxCell>
        <mxCell id="tepPoc68Ynostsxfefrb-46" value="Adverse event HR" style="rounded=1;whiteSpace=wrap;html=1;fillColor=none;strokeColor=none;" parent="1" vertex="1">
          <mxGeometry x="680" y="215" width="110" height="30" as="geometry" />
        </mxCell>
        <mxCell id="tepPoc68Ynostsxfefrb-61" style="edgeStyle=orthogonalEdgeStyle;rounded=0;orthogonalLoop=1;jettySize=auto;html=1;exitX=1;exitY=0.5;exitDx=0;exitDy=0;endArrow=none;endFill=0;" parent="1" source="tepPoc68Ynostsxfefrb-48" edge="1">
          <mxGeometry relative="1" as="geometry">
            <mxPoint x="1080" y="350" as="targetPoint" />
          </mxGeometry>
        </mxCell>
        <mxCell id="tepPoc68Ynostsxfefrb-48" value="Apply HR to reference curves" style="rounded=1;whiteSpace=wrap;html=1;fillColor=#b1ddf0;strokeColor=#10739e;" parent="1" vertex="1">
          <mxGeometry x="840" y="180" width="80" height="47.5" as="geometry" />
        </mxCell>
        <mxCell id="tepPoc68Ynostsxfefrb-64" style="edgeStyle=orthogonalEdgeStyle;rounded=0;orthogonalLoop=1;jettySize=auto;html=1;exitX=1;exitY=0.5;exitDx=0;exitDy=0;endArrow=none;endFill=0;" parent="1" source="tepPoc68Ynostsxfefrb-50" edge="1">
          <mxGeometry relative="1" as="geometry">
            <mxPoint x="450" y="450" as="targetPoint" />
            <Array as="points">
              <mxPoint x="450" y="490" />
            </Array>
          </mxGeometry>
        </mxCell>
        <mxCell id="tepPoc68Ynostsxfefrb-50" value="Resource use and costs" style="rounded=1;whiteSpace=wrap;html=1;fillColor=none;strokeColor=none;" parent="1" vertex="1">
          <mxGeometry x="312.5" y="470" width="85" height="40" as="geometry" />
        </mxCell>
        <mxCell id="tepPoc68Ynostsxfefrb-53" style="edgeStyle=orthogonalEdgeStyle;rounded=0;orthogonalLoop=1;jettySize=auto;html=1;exitX=1;exitY=0.5;exitDx=0;exitDy=0;entryX=0;entryY=0.5;entryDx=0;entryDy=0;" parent="1" source="tepPoc68Ynostsxfefrb-52" target="tepPoc68Ynostsxfefrb-50" edge="1">
          <mxGeometry relative="1" as="geometry" />
        </mxCell>
        <mxCell id="tepPoc68Ynostsxfefrb-55" style="edgeStyle=orthogonalEdgeStyle;rounded=0;orthogonalLoop=1;jettySize=auto;html=1;exitX=1;exitY=0.5;exitDx=0;exitDy=0;entryX=0;entryY=0.5;entryDx=0;entryDy=0;" parent="1" source="tepPoc68Ynostsxfefrb-52" target="tepPoc68Ynostsxfefrb-54" edge="1">
          <mxGeometry relative="1" as="geometry" />
        </mxCell>
        <mxCell id="tepPoc68Ynostsxfefrb-52" value="Search for economic evaluations" style="rounded=1;whiteSpace=wrap;html=1;fillColor=#b1ddf0;strokeColor=#10739e;" parent="1" vertex="1">
          <mxGeometry x="180" y="440" width="82.5" height="50" as="geometry" />
        </mxCell>
        <mxCell id="tepPoc68Ynostsxfefrb-54" value="Utilities" style="rounded=1;whiteSpace=wrap;html=1;fillColor=none;strokeColor=none;" parent="1" vertex="1">
          <mxGeometry x="312.5" y="440" width="85" height="20" as="geometry" />
        </mxCell>
        <mxCell id="tepPoc68Ynostsxfefrb-73" style="edgeStyle=orthogonalEdgeStyle;rounded=0;orthogonalLoop=1;jettySize=auto;html=1;exitX=1;exitY=0.5;exitDx=0;exitDy=0;entryX=0;entryY=0.5;entryDx=0;entryDy=0;" parent="1" source="tepPoc68Ynostsxfefrb-56" target="tepPoc68Ynostsxfefrb-71" edge="1">
          <mxGeometry relative="1" as="geometry" />
        </mxCell>
        <mxCell id="tepPoc68Ynostsxfefrb-56" value="State transition (Markov) model" style="rounded=1;whiteSpace=wrap;html=1;fillColor=#b1ddf0;strokeColor=#10739e;" parent="1" vertex="1">
          <mxGeometry x="1120" y="266.25" width="120" height="40" as="geometry" />
        </mxCell>
        <mxCell id="tepPoc68Ynostsxfefrb-75" style="edgeStyle=orthogonalEdgeStyle;rounded=0;orthogonalLoop=1;jettySize=auto;html=1;exitX=1;exitY=0.5;exitDx=0;exitDy=0;entryX=0;entryY=0.5;entryDx=0;entryDy=0;" parent="1" source="tepPoc68Ynostsxfefrb-57" target="tepPoc68Ynostsxfefrb-58" edge="1">
          <mxGeometry relative="1" as="geometry" />
        </mxCell>
        <mxCell id="tepPoc68Ynostsxfefrb-57" value="Partitioned survival model" style="rounded=1;whiteSpace=wrap;html=1;fillColor=#b1ddf0;strokeColor=#10739e;" parent="1" vertex="1">
          <mxGeometry x="1120" y="326.25" width="120" height="40" as="geometry" />
        </mxCell>
        <mxCell id="tepPoc68Ynostsxfefrb-58" value="Costs, QALYs and ICERs for each treatment" style="rounded=0;whiteSpace=wrap;html=1;fillColor=none;strokeColor=none;" parent="1" vertex="1">
          <mxGeometry x="1350" y="292.5" width="90" height="47.5" as="geometry" />
        </mxCell>
        <mxCell id="tepPoc68Ynostsxfefrb-65" value="" style="endArrow=none;html=1;rounded=0;edgeStyle=orthogonalEdgeStyle;endFill=0;exitX=1;exitY=0.5;exitDx=0;exitDy=0;" parent="1" source="tepPoc68Ynostsxfefrb-54" edge="1">
          <mxGeometry width="50" height="50" relative="1" as="geometry">
            <mxPoint x="440" y="450" as="sourcePoint" />
            <mxPoint x="1080" y="350" as="targetPoint" />
          </mxGeometry>
        </mxCell>
        <mxCell id="tepPoc68Ynostsxfefrb-67" value="" style="endArrow=classic;html=1;rounded=0;entryX=0;entryY=0.5;entryDx=0;entryDy=0;edgeStyle=orthogonalEdgeStyle;" parent="1" target="tepPoc68Ynostsxfefrb-56" edge="1">
          <mxGeometry width="50" height="50" relative="1" as="geometry">
            <mxPoint x="1080" y="320" as="sourcePoint" />
            <mxPoint x="1110" y="380" as="targetPoint" />
          </mxGeometry>
        </mxCell>
        <mxCell id="tepPoc68Ynostsxfefrb-68" value="" style="endArrow=classic;html=1;rounded=0;entryX=0;entryY=0.5;entryDx=0;entryDy=0;edgeStyle=orthogonalEdgeStyle;" parent="1" target="tepPoc68Ynostsxfefrb-57" edge="1">
          <mxGeometry width="50" height="50" relative="1" as="geometry">
            <mxPoint x="1080" y="320" as="sourcePoint" />
            <mxPoint x="1110" y="380" as="targetPoint" />
          </mxGeometry>
        </mxCell>
        <mxCell id="tepPoc68Ynostsxfefrb-70" style="edgeStyle=orthogonalEdgeStyle;rounded=0;orthogonalLoop=1;jettySize=auto;html=1;exitX=1;exitY=0.5;exitDx=0;exitDy=0;entryX=0;entryY=0.5;entryDx=0;entryDy=0;" parent="1" source="tepPoc68Ynostsxfefrb-69" target="tepPoc68Ynostsxfefrb-48" edge="1">
          <mxGeometry relative="1" as="geometry" />
        </mxCell>
        <mxCell id="tepPoc68Ynostsxfefrb-69" value="Reference curves from trial data:&lt;div&gt;1L sunitinib&lt;/div&gt;&lt;div&gt;2L+ everolimus&lt;/div&gt;" style="rounded=1;whiteSpace=wrap;html=1;fillColor=none;strokeColor=none;" parent="1" vertex="1">
          <mxGeometry x="680" y="160" width="110" height="40" as="geometry" />
        </mxCell>
        <mxCell id="tepPoc68Ynostsxfefrb-76" style="edgeStyle=orthogonalEdgeStyle;rounded=0;orthogonalLoop=1;jettySize=auto;html=1;exitX=1;exitY=0.5;exitDx=0;exitDy=0;entryX=0;entryY=0.5;entryDx=0;entryDy=0;" parent="1" source="tepPoc68Ynostsxfefrb-71" target="tepPoc68Ynostsxfefrb-58" edge="1">
          <mxGeometry relative="1" as="geometry">
            <Array as="points">
              <mxPoint x="1340" y="286" />
              <mxPoint x="1340" y="316" />
            </Array>
          </mxGeometry>
        </mxCell>
        <mxCell id="tepPoc68Ynostsxfefrb-71" value="Severity modifier" style="rounded=1;whiteSpace=wrap;html=1;fillColor=#b1ddf0;strokeColor=#10739e;" parent="1" vertex="1">
          <mxGeometry x="1260" y="266.25" width="70" height="40" as="geometry" />
        </mxCell>
        <mxCell id="AXeaygmQXdkBwOUCzoVz-4" style="edgeStyle=orthogonalEdgeStyle;rounded=0;orthogonalLoop=1;jettySize=auto;html=1;exitX=1;exitY=0.5;exitDx=0;exitDy=0;endArrow=none;endFill=0;" parent="1" source="AXeaygmQXdkBwOUCzoVz-2" edge="1">
          <mxGeometry relative="1" as="geometry">
            <mxPoint x="450" y="450" as="targetPoint" />
          </mxGeometry>
        </mxCell>
        <mxCell id="AXeaygmQXdkBwOUCzoVz-2" value="Proportion of people receiving each treatment in practice" style="rounded=1;whiteSpace=wrap;html=1;fillColor=none;strokeColor=none;" parent="1" vertex="1">
          <mxGeometry x="300" y="380" width="125" height="40" as="geometry" />
        </mxCell>
        <mxCell id="l0Ag9LYWdljjj3G1tQXy-4" style="edgeStyle=orthogonalEdgeStyle;rounded=0;orthogonalLoop=1;jettySize=auto;html=1;exitX=1;exitY=0.5;exitDx=0;exitDy=0;endArrow=none;endFill=0;" edge="1" parent="1" source="l0Ag9LYWdljjj3G1tQXy-1">
          <mxGeometry relative="1" as="geometry">
            <mxPoint x="450" y="480" as="targetPoint" />
          </mxGeometry>
        </mxCell>
        <mxCell id="l0Ag9LYWdljjj3G1tQXy-1" value="Possible treatment sequences" style="rounded=1;whiteSpace=wrap;html=1;fillColor=none;strokeColor=none;" vertex="1" parent="1">
          <mxGeometry x="329" y="530" width="85" height="40" as="geometry" />
        </mxCell>
        <mxCell id="l0Ag9LYWdljjj3G1tQXy-3" style="edgeStyle=orthogonalEdgeStyle;rounded=0;orthogonalLoop=1;jettySize=auto;html=1;exitX=1;exitY=0.5;exitDx=0;exitDy=0;" edge="1" parent="1" source="l0Ag9LYWdljjj3G1tQXy-2" target="l0Ag9LYWdljjj3G1tQXy-1">
          <mxGeometry relative="1" as="geometry" />
        </mxCell>
        <mxCell id="l0Ag9LYWdljjj3G1tQXy-2" value="Clinical advice and routine commissioning rules" style="rounded=1;whiteSpace=wrap;html=1;fillColor=none;strokeColor=none;" vertex="1" parent="1">
          <mxGeometry x="146.25" y="530" width="150" height="40" as="geometry" />
        </mxCell>
      </root>
    </mxGraphModel>
  </diagram>
</mxfile>
